<?xml version="1.0" encoding="UTF-8"?>
<svg fill="#0A0A0A" id="Capa_1" data-name="Capa 1" xmlns="http://www.w3.org/2000/svg" viewBox="0 0 490.15 57.77">
  <polygon points="289.64 15.75 305.39 0 226.62 0 226.62 57.76 247.63 57.76 263.38 42.01 242.37 42.01 242.37 15.75 289.64 15.75"/>
  <path d="M28.3,57.77V15.75H0V0h72.36v15.75h-28.3v42.01h-15.75Z"/>
  <path d="M126.92,57.77V0h15.75v57.76h-15.75Z"/>
  <g>
    <polygon points="307.65 36.76 332.74 36.76 332.74 57.77 348.5 57.77 348.5 21.01 323.4 21.01 307.65 36.76"/>
    <polygon points="312.9 0 255.14 57.77 278.77 57.77 320.78 15.75 407.73 15.75 381.47 42.01 369.5 42.01 369.5 21.01 353.75 21.01 353.75 57.77 389.35 57.77 447.11 0 312.9 0"/>
  </g>
  <polygon points="121.67 36.76 121.67 0 77.61 0 77.61 15.75 105.91 15.75 105.91 21.01 49.31 21.01 49.31 57.77 65.06 57.77 65.06 36.76 77.03 36.76 98.04 57.77 121.67 57.77 100.66 36.76 121.67 36.76"/>
  <polygon points="205.62 0 205.62 42.01 163.6 0 163.6 0 160.98 0 156.07 0 156.07 0 147.85 0 147.85 57.77 163.6 57.77 163.6 23.63 197.74 57.76 197.74 57.76 197.74 57.76 221.37 57.76 221.37 0 205.62 0"/>
  <path d="M454.56,0l-57.76,57.76h93.36V0h-35.6ZM474.4,42.02h-38.22l26.26-26.26h11.97v26.26Z"/>
</svg>