<?xml version="1.0" encoding="UTF-8"?>
<svg id="Capa_1" data-name="Capa 1" xmlns="http://www.w3.org/2000/svg" viewBox="0 0 478.64 76.5">
  <defs>
    <style>
      .cls-1 {
        fill: #5a5e40;
      }
    </style>
  </defs>
  <g>
    <path d="M69.97,62.79c1.37,0,2.48,1.1,2.48,2.48v8.76c0,1.37-1.1,2.48-2.48,2.48h-8.76c-1.37,0-2.48-1.1-2.48-2.48v-8.76c0-1.37,1.1-2.48,2.48-2.48h8.76ZM69.97,74.45c.23,0,.42-.19.42-.42v-8.76c0-.23-.19-.42-.42-.42h-8.76c-.23,0-.42.19-.42.42v8.76c0,.23.19.42.42.42h8.76Z"/>
    <path d="M91.3,62.79h2.06v11.24c0,1.37-1.1,2.48-2.48,2.48h-8.76c-1.37,0-2.48-1.1-2.48-2.48v-11.24h2.06v11.24c0,.23.19.42.42.42h8.76c.23,0,.42-.19.42-.42v-11.24Z"/>
    <path d="M113.62,62.79v2.06h-5.83v11.65h-2.06v-11.65h-5.83v-2.06h13.71Z"/>
    <path d="M131.47,62.79c1.37,0,2.48,1.1,2.48,2.48v8.76c0,1.37-1.1,2.48-2.48,2.48h-11.24v-13.71h11.24ZM131.89,65.27c0-.23-.19-.42-.42-.42h-8.76c-.23,0-.42.19-.42.42v8.76c0,.23.19.42.42.42h8.76c.23,0,.42-.19.42-.42v-8.76Z"/>
    <path d="M152.42,62.79c1.37,0,2.48,1.1,2.48,2.48v8.76c0,1.37-1.1,2.48-2.48,2.48h-8.76c-1.37,0-2.48-1.1-2.48-2.48v-8.76c0-1.37,1.1-2.48,2.48-2.48h8.76ZM152.42,74.45c.23,0,.42-.19.42-.42v-8.76c0-.23-.19-.42-.42-.42h-8.76c-.23,0-.42.19-.42.42v8.76c0,.23.19.42.42.42h8.76Z"/>
    <path d="M173.33,62.79c1.37,0,2.48,1.1,2.48,2.48v8.76c0,1.37-1.1,2.48-2.48,2.48h-8.76c-1.37,0-2.48-1.1-2.48-2.48v-8.76c0-1.37,1.1-2.48,2.48-2.48h8.76ZM173.33,74.45c.23,0,.42-.19.42-.42v-8.76c0-.23-.19-.42-.42-.42h-8.76c-.23,0-.42.19-.42.42v8.76c0,.23.19.42.42.42h8.76Z"/>
    <path d="M196.74,69.13c0,1.35-1.1,2.47-2.48,2.47h-1.39l3.87,4.61v.29h-2.44l-4.11-4.89h-4.68c-.15,0-.29-.02-.42-.04v4.93h-2.06v-13.69h11.24c1.37,0,2.48,1.12,2.48,2.47v3.85ZM194.26,69.55c.23,0,.42-.19.42-.42v-3.85c0-.23-.19-.42-.42-.42h-8.76c-.23,0-.42.19-.42.42v3.85c0,.23.19.42.42.42h8.76Z"/>
    <path d="M227.18,64.85h-10.51v3.77h8.46v2.06h-8.46v3.77h10.51v2.06h-12.57v-13.71h12.57v2.06Z"/>
    <path d="M247.82,62.79v.29l-5.52,6.57,5.52,6.57v.29h-2.44l-4.42-5.26-4.42,5.26h-2.44v-.29l5.5-6.57-5.5-6.57v-.29h2.44l4.42,5.26,4.42-5.26h2.44Z"/>
    <path d="M266.15,62.81c1.37,0,2.48,1.12,2.48,2.47v3.85c0,1.35-1.1,2.47-2.48,2.47h-8.76c-.15,0-.29-.02-.42-.04v4.93h-2.06v-13.69h11.24ZM266.56,65.29c0-.23-.19-.42-.42-.42h-8.76c-.23,0-.42.19-.42.42v3.85c0,.23.19.42.42.42h8.76c.23,0,.42-.19.42-.42v-3.85Z"/>
    <path d="M287.72,64.85h-10.51v3.77h8.46v2.06h-8.46v3.77h10.51v2.06h-12.57v-13.71h12.57v2.06Z"/>
    <path d="M308.54,69.13c0,1.35-1.1,2.47-2.47,2.47h-1.39l3.87,4.61v.29h-2.44l-4.11-4.89h-4.68c-.15,0-.29-.02-.42-.04v4.93h-2.06v-13.69h11.24c1.37,0,2.47,1.12,2.47,2.47v3.85ZM306.07,69.55c.23,0,.42-.19.42-.42v-3.85c0-.23-.19-.42-.42-.42h-8.76c-.23,0-.42.19-.42.42v3.85c0,.23.19.42.42.42h8.76Z"/>
    <path d="M315.73,62.79h2.06v13.71h-2.06v-13.71Z"/>
    <path d="M337.65,64.85h-10.51v3.77h8.46v2.06h-8.46v3.77h10.51v2.06h-12.57v-13.71h12.57v2.06Z"/>
    <path d="M356.42,62.79h2.06v13.71h-2.44l-9.22-10.97v10.97h-2.06v-13.71h2.44l9.22,10.97v-10.97Z"/>
    <path d="M368.24,64.85c-.23,0-.42.19-.42.42v8.76c0,.23.19.42.42.42h11.2v2.06h-11.2c-1.37,0-2.48-1.1-2.48-2.48v-8.76c0-1.37,1.1-2.48,2.48-2.48h11.2v2.06h-11.2Z"/>
    <path d="M399.16,64.85h-10.51v3.77h8.46v2.06h-8.46v3.77h10.51v2.06h-12.57v-13.71h12.57v2.06Z"/>
    <path d="M419.91,66.07h-2.06v-.8c0-.23-.19-.42-.42-.42h-8.76c-.23,0-.42.19-.42.42v2.93c0,.23.19.42.42.42h8.76c1.37,0,2.48,1.1,2.48,2.48v2.93c0,1.37-1.11,2.48-2.48,2.48h-8.76c-1.37,0-2.47-1.1-2.47-2.48v-.8h2.06v.8c0,.23.19.42.42.42h8.76c.23,0,.42-.19.42-.42v-2.93c0-.23-.19-.42-.42-.42h-8.76c-1.37,0-2.47-1.1-2.47-2.48v-2.93c0-1.37,1.1-2.48,2.47-2.48h8.76c1.37,0,2.48,1.1,2.48,2.48v.8Z"/>
  </g>
  <g>
    <g>
      <polygon points="197.73 15.75 208.49 4.99 154.71 4.99 154.71 44.43 169.05 44.43 179.81 33.67 165.47 33.67 165.47 15.75 197.73 15.75"/>
      <path d="M19.32,44.43V15.75H0V4.99h49.4v10.76h-19.32v28.68h-10.76Z"/>
      <path d="M86.65,44.43V4.99h10.76v39.44h-10.76Z"/>
      <g>
        <polygon points="210.03 30.09 227.16 30.09 227.16 44.43 237.92 44.43 237.92 19.33 220.79 19.33 210.03 30.09"/>
        <polygon points="213.62 4.99 174.18 44.43 190.31 44.43 218.99 15.75 278.35 15.75 260.43 33.67 252.26 33.67 252.26 19.33 241.5 19.33 241.5 44.43 265.81 44.43 305.24 4.99 213.62 4.99"/>
      </g>
      <polygon points="83.06 30.09 83.06 4.99 52.98 4.99 52.98 15.75 72.31 15.75 72.31 19.33 33.66 19.33 33.66 44.43 44.42 44.43 44.42 30.09 52.59 30.09 66.93 44.43 83.06 44.43 68.72 30.09 83.06 30.09"/>
      <polygon points="140.37 4.99 140.37 33.67 111.69 4.99 111.69 4.99 109.9 4.99 106.55 4.99 106.55 4.99 100.94 4.99 100.94 44.43 111.69 44.43 111.69 21.13 134.99 44.43 135 44.43 135 44.43 151.13 44.43 151.13 4.99 140.37 4.99"/>
      <path d="M310.33,5l-39.44,39.44h63.74V5h-24.3ZM323.87,33.68h-26.09l17.93-17.93h8.17v17.93Z"/>
    </g>
    <g>
      <polygon class="cls-1" points="398.21 0 417.8 0 368.34 49.46 348.75 49.46 398.21 0"/>
      <polygon class="cls-1" points="386.47 37.72 398.21 49.46 417.8 49.46 396.26 27.92 386.47 37.72"/>
      <polygon class="cls-1" points="380.15 11.81 368.34 0 348.75 0 370.36 21.6 380.15 11.81"/>
      <polygon class="cls-1" points="472.57 0 469.77 0 424.18 0 410.71 13.47 465.14 13.47 465.14 17.98 422.56 17.98 422.56 49.3 437.49 49.3 437.49 32.39 469.77 32.39 470.67 32.39 478.64 32.39 478.64 22.67 478.64 7.43 478.64 0 472.57 0"/>
    </g>
  </g>
</svg>